<svg width="191" height="65" viewBox="0 0 191 65" fill="none" xmlns="http://www.w3.org/2000/svg">
<rect x="177" y="34" width="14" height="14" rx="2" fill="#155DFC"/>
<path d="M18.56 48.256H0V0.896H17.92C22.5707 0.896 26.6453 1.89867 30.144 3.904C33.6853 5.90933 36.4587 8.704 38.464 12.288C40.4693 15.872 41.472 20.0107 41.472 24.704C41.472 29.312 40.4907 33.3867 38.528 36.928C36.608 40.4693 33.92 43.2427 30.464 45.248C27.0507 47.2533 23.0827 48.256 18.56 48.256ZM10.368 5.632V43.648L5.44 38.656H17.536C20.2667 38.656 22.592 38.1013 24.512 36.992C26.4747 35.8827 27.968 34.2827 28.992 32.192C30.016 30.1013 30.528 27.6053 30.528 24.704C30.528 21.7173 29.9733 19.1787 28.864 17.088C27.7973 14.9547 26.24 13.3333 24.192 12.224C22.1867 11.072 19.7547 10.496 16.896 10.496H5.44L10.368 5.632Z" fill="#F9FFF7"/>
<path d="M55.2155 49.088C51.8448 49.088 49.1568 48.1707 47.1515 46.336C45.1888 44.4587 44.2075 41.9627 44.2075 38.848C44.2075 35.904 45.2102 33.5573 47.2155 31.808C49.2635 30.0587 52.2075 29.0347 56.0475 28.736L65.0075 28.032V27.52C65.0075 26.4533 64.7942 25.5787 64.3675 24.896C63.9408 24.1707 63.3222 23.6373 62.5115 23.296C61.7435 22.912 60.7622 22.72 59.5675 22.72C57.4768 22.72 55.8768 23.104 54.7675 23.872C53.7008 24.64 53.1675 25.7493 53.1675 27.2H44.9755C44.9755 24.768 45.5942 22.656 46.8315 20.864C48.0688 19.072 49.8182 17.6853 52.0795 16.704C54.3835 15.7227 57.0502 15.232 60.0795 15.232C63.1942 15.232 65.8182 15.7867 67.9515 16.896C70.1275 18.0053 71.7702 19.6267 72.8795 21.76C74.0315 23.8933 74.6075 26.496 74.6075 29.568V48.256H65.9035L65.2635 44.032C64.7515 45.4827 63.5355 46.6987 61.6155 47.68C59.7382 48.6187 57.6048 49.088 55.2155 49.088ZM58.6715 41.792C60.5488 41.792 62.0848 41.344 63.2795 40.448C64.4742 39.5093 65.0715 38.1227 65.0715 36.288V34.56L60.0795 35.008C57.9462 35.1787 56.4315 35.5413 55.5355 36.096C54.6822 36.608 54.2555 37.376 54.2555 38.4C54.2555 39.552 54.6182 40.4053 55.3435 40.96C56.0688 41.5147 57.1782 41.792 58.6715 41.792Z" fill="#F9FFF7"/>
<path d="M77.4525 38.144H86.7965C86.8818 39.2533 87.3298 40.128 88.1405 40.768C88.9512 41.408 90.1032 41.728 91.5965 41.728C93.1325 41.728 94.2632 41.472 94.9885 40.96C95.7138 40.448 96.0765 39.7867 96.0765 38.976C96.0765 38.5067 95.8845 38.0373 95.5005 37.568C95.1592 37.0987 94.3912 36.736 93.1965 36.48L87.3085 35.2C84.3645 34.56 82.1672 33.536 80.7165 32.128C79.2658 30.6773 78.5405 28.544 78.5405 25.728C78.5405 23.5093 79.1165 21.632 80.2685 20.096C81.4632 18.5173 83.0632 17.3227 85.0685 16.512C87.0738 15.6587 89.3565 15.232 91.9165 15.232C94.3912 15.232 96.5672 15.68 98.4445 16.576C100.365 17.472 101.858 18.7307 102.925 20.352C103.991 21.9733 104.525 23.872 104.525 26.048H95.1805C95.1805 24.9387 94.8605 24.064 94.2205 23.424C93.5805 22.7413 92.6632 22.4 91.4685 22.4C90.3592 22.4 89.4632 22.6773 88.7805 23.232C88.1405 23.744 87.8205 24.4267 87.8205 25.28C87.8205 26.6453 88.9725 27.584 91.2765 28.096L97.2285 29.376C99.8738 29.9307 101.879 30.8907 103.245 32.256C104.653 33.5787 105.357 35.52 105.357 38.08C105.357 40.3413 104.759 42.304 103.565 43.968C102.37 45.632 100.706 46.912 98.5725 47.808C96.4392 48.6613 93.9858 49.088 91.2125 49.088C86.9885 49.088 83.6392 48.0853 81.1645 46.08C78.6898 44.032 77.4525 41.3867 77.4525 38.144Z" fill="#F9FFF7"/>
<path d="M118.442 48.256H108.586V0H118.442V27.776L128.811 16.256H141.163L129.13 28.928L140.779 48.256H129.387L122.218 36.288L118.442 40.256V48.256Z" fill="#F9FFF7"/>
<path d="M150.46 16.256L159.868 43.904L155.068 55.296L139.9 16.256H150.46ZM140.732 63.616V55.36H146.172C147.281 55.36 148.198 55.2107 148.924 54.912C149.649 54.656 150.268 54.208 150.78 53.568C151.292 52.928 151.761 52.032 152.188 50.88L165.18 16.256H175.42L159.164 55.232C157.841 58.4747 156.219 60.8213 154.299 62.272C152.422 63.7653 150.076 64.512 147.26 64.512C146.065 64.512 144.913 64.4267 143.804 64.256C142.737 64.128 141.713 63.9147 140.732 63.616Z" fill="#F9FFF7"/>
</svg>
